<svg width="1134" height="1134" viewBox="0 0 1134 1134" fill="none" xmlns="http://www.w3.org/2000/svg">
  <path fill-rule="evenodd" clip-rule="evenodd"
    d="M869.659 290.12L567.404 188.251L265.442 290.997L266.214 624.812L445.248 624.549V509.666H398.516L399.221 396.199L567.369 335.063L735.264 395.571L735.729 436.013L871 436.478L869.659 290.12ZM276.621 844.055L578.875 945.924L880.838 843.178L880.066 509.364L588.467 509.601V624.483L747.764 624.509L747.059 737.977L578.91 799.112L411.016 738.605L410.55 698.163L275.28 697.698L276.621 844.055Z"
    fill="url(#paint0_linear_112_2)" />

  <path d="M249.129 404.011V280.861L502.368 195.153" stroke="#40826d" stroke-width="5.33329" stroke-miterlimit="22.9256"
    stroke-linecap="square" />
  <path d="M897.622 731.792V854.942L644.383 940.65" stroke="#40826d" stroke-width="5.33329" stroke-miterlimit="22.9256"
    stroke-linecap="square" />
  <path d="M424.859 698.013V729.767L490.157 751.867" stroke="#40826d" stroke-width="5.33329" stroke-miterlimit="22.9256"
    stroke-linecap="square" />
  <path d="M715.763 438.666V406.911L650.465 384.811" stroke="#40826d" stroke-width="5.33329" stroke-miterlimit="22.9256"
    stroke-linecap="square" />
  <defs>
    <linearGradient id="paint0_linear_112_2" x1="587.955" y1="962.803" x2="582.155" y2="93.3634"
      gradientUnits="userSpaceOnUse">
      <stop stop-color="#5cc8ff" />
      <stop offset="1" stop-color="#7d70ba" />
    </linearGradient>
  </defs>
</svg>