<?xml version="1.0" encoding="iso-8859-1"?>
<!-- Uploaded to: SVG Repo, www.svgrepo.com, Generator: SVG Repo Mixer Tools -->
<svg fill="#000000" height="800px" width="800px" version="1.1" id="Capa_1" xmlns="http://www.w3.org/2000/svg"
	xmlns:xlink="http://www.w3.org/1999/xlink" viewBox="0 0 56.121 56.121" xml:space="preserve">
	<path fill="currentColor" d="M56.046,21.633c-0.179-0.552-0.646-0.946-1.22-1.028l-12.536-1.821c-3.145-0.458-5.862-2.433-7.27-5.281L29.416,2.143
	C29.16,1.624,28.64,1.3,28.061,1.3s-1.099,0.323-1.354,0.843L21.1,13.502c-1.406,2.849-4.124,4.823-7.27,5.281L1.296,20.605
	c-0.574,0.082-1.042,0.477-1.222,1.029c-0.179,0.551-0.031,1.145,0.383,1.547l9.071,8.842c2.275,2.219,3.313,5.414,2.776,8.546
	l-2.142,12.485c-0.075,0.44,0.046,0.888,0.332,1.228c0.447,0.53,1.249,0.689,1.859,0.364l11.214-5.895
	c2.757-1.451,6.224-1.451,8.984,0l11.212,5.895c0.218,0.114,0.461,0.175,0.704,0.175c0.445,0,0.867-0.196,1.156-0.539
	c0.286-0.34,0.407-0.787,0.332-1.228l-2.142-12.485c-0.537-3.133,0.501-6.327,2.777-8.546l9.068-8.84
	C56.078,22.779,56.225,22.185,56.046,21.633z M8.765,23.852c-0.194,0.517-0.771,0.778-1.288,0.584s-0.778-0.771-0.584-1.288
	c0.195-0.517,0.771-0.778,1.288-0.584C8.698,22.759,8.96,23.336,8.765,23.852z M12.509,25.261c-0.194,0.517-0.771,0.778-1.288,0.584
	s-0.778-0.771-0.584-1.288c0.194-0.517,0.771-0.778,1.288-0.584C12.442,24.167,12.703,24.744,12.509,25.261z M36.709,26.79
	c0.517-0.194,1.094,0.067,1.288,0.584c0.195,0.517-0.067,1.094-0.584,1.288s-1.094-0.067-1.288-0.584S36.192,26.984,36.709,26.79z
	 M28.061,7.726c0.552,0,1,0.448,1,1s-0.448,1-1,1c-0.552,0-1-0.448-1-1S27.508,7.726,28.061,7.726z M28.061,11.726
	c0.552,0,1,0.448,1,1s-0.448,1-1,1c-0.552,0-1-0.448-1-1S27.508,11.726,28.061,11.726z M28.061,15.726c0.552,0,1,0.448,1,1
	s-0.448,1-1,1c-0.552,0-1-0.448-1-1S27.508,15.726,28.061,15.726z M28.061,19.726c0.552,0,1,0.448,1,1s-0.448,1-1,1
	c-0.552,0-1-0.448-1-1S27.508,19.726,28.061,19.726z M18.125,27.374c0.194-0.517,0.771-0.778,1.288-0.584
	c0.517,0.195,0.778,0.771,0.584,1.288c-0.194,0.517-0.771,0.778-1.288,0.584C18.192,28.467,17.93,27.891,18.125,27.374z
	 M14.381,25.965c0.195-0.517,0.771-0.778,1.288-0.584c0.517,0.194,0.778,0.771,0.584,1.288s-0.771,0.778-1.288,0.584
	C14.448,27.059,14.187,26.482,14.381,25.965z M16.459,47.796c-0.34,0.435-0.969,0.512-1.404,0.172
	c-0.435-0.34-0.512-0.969-0.172-1.404c0.34-0.435,0.969-0.512,1.404-0.172S16.799,47.361,16.459,47.796z M18.922,44.645
	c-0.34,0.435-0.969,0.512-1.404,0.172c-0.435-0.34-0.512-0.969-0.172-1.404s0.969-0.512,1.404-0.172S19.262,44.21,18.922,44.645z
	 M21.385,41.493c-0.34,0.435-0.969,0.512-1.404,0.172c-0.435-0.34-0.512-0.969-0.172-1.404c0.34-0.435,0.969-0.512,1.404-0.172
	C21.648,40.43,21.725,41.058,21.385,41.493z M23.849,38.342c-0.34,0.435-0.969,0.512-1.404,0.172
	c-0.435-0.34-0.512-0.969-0.172-1.404s0.969-0.512,1.404-0.172C24.112,37.278,24.189,37.907,23.849,38.342z M33.677,38.514
	c-0.435,0.34-1.063,0.263-1.404-0.172c-0.34-0.435-0.263-1.064,0.172-1.404c0.435-0.34,1.064-0.263,1.404,0.172
	S34.112,38.174,33.677,38.514z M28.061,35.726c-3.309,0-6-2.691-6-6s2.691-6,6-6s6,2.691,6,6S31.37,35.726,28.061,35.726z
	 M36.14,41.665c-0.435,0.34-1.064,0.263-1.404-0.172c-0.34-0.435-0.263-1.064,0.172-1.404c0.435-0.34,1.064-0.263,1.404,0.172
	S36.575,41.325,36.14,41.665z M38.603,44.817c-0.435,0.34-1.063,0.263-1.404-0.172c-0.34-0.435-0.263-1.064,0.172-1.404
	s1.064-0.263,1.404,0.172S39.038,44.477,38.603,44.817z M41.066,47.968c-0.435,0.34-1.064,0.263-1.404-0.172
	c-0.34-0.435-0.263-1.064,0.172-1.404c0.435-0.34,1.064-0.263,1.404,0.172S41.501,47.628,41.066,47.968z M41.157,27.253
	c-0.517,0.194-1.094-0.067-1.288-0.584c-0.195-0.517,0.067-1.094,0.584-1.288c0.517-0.195,1.094,0.067,1.288,0.584
	C41.935,26.482,41.674,27.059,41.157,27.253z M44.901,25.845c-0.517,0.194-1.094-0.067-1.288-0.584
	c-0.194-0.517,0.067-1.094,0.584-1.288c0.517-0.194,1.094,0.067,1.288,0.584S45.418,25.65,44.901,25.845z M48.645,24.436
	c-0.517,0.195-1.094-0.067-1.288-0.584c-0.195-0.517,0.067-1.094,0.584-1.288c0.517-0.194,1.094,0.067,1.288,0.584
	C49.423,23.665,49.161,24.241,48.645,24.436z" />
</svg>