<svg width="1134" height="1134" viewBox="0 0 1134 1134" fill="none" xmlns="http://www.w3.org/2000/svg">
  <path fill-rule="evenodd" clip-rule="evenodd"
    d="M869.659 290.12L567.404 188.251L265.442 290.997L266.214 624.812L445.248 624.549V509.666H398.516L399.221 396.199L567.369 335.063L735.264 395.571L735.729 436.013L871 436.478L869.659 290.12ZM276.621 844.055L578.875 945.924L880.838 843.178L880.066 509.364L588.467 509.601V624.483L747.764 624.509L747.059 737.977L578.91 799.112L411.016 738.605L410.55 698.163L275.28 697.698L276.621 844.055Z"
    fill="url(#paint0_linear_112_2)" />
  <path
    d="M695.563 231.445L676.987 225.184L684.209 241.094H691.164L695.563 231.445ZM561.946 190.109L546.619 195.324V240.434H561.946V190.109ZM446.563 229.369L431.31 234.559V240.434H446.563V229.369ZM414.15 240.398L414.042 240.434H414.15V240.398Z"
    fill="#BC96E6" fill-opacity="0.239216" />
  <path
    d="M280.141 351.262C291.704 351.262 301.946 344.443 301.946 333.455C301.946 324.923 295.97 319.387 286.949 315.586C280.716 312.97 276.634 312.102 276.634 309.45C276.634 307.483 278.895 305.869 282.036 305.869C284.798 305.869 289.235 307.189 290.958 310.244L299.795 301.714C297.534 296.018 290.665 291.862 281.865 291.862C275.292 291.862 269.248 294.424 265.459 298.63L265.507 319.47C267.984 322.128 271.355 324.104 274.984 325.669C280.643 328.187 286.546 330.802 286.546 333.784C286.546 336.143 283.368 337.329 280.105 337.329C275.277 337.329 270.792 335.178 268.396 331.633L265.542 334.427L265.572 347.515C269.532 349.887 274.694 351.262 280.141 351.262ZM546.755 342.558L562.081 336.986V292.742H546.755V342.558ZM431.446 292.742V314.376H414.285V292.742H398.959V350.456H414.285V328.676H431.446V350.456H446.699V292.742H431.446ZM701.114 292.742L687.755 324.019L674.433 292.742H657.848L684.346 351.115H691.299L717.907 292.742H701.114ZM867.146 317.321H837.544V328.737H850.744C850.536 334.212 845.549 337.549 838.57 337.549C827.889 337.549 821.411 329.739 821.411 321.648C821.411 312.726 828.964 305.649 837.569 305.649C841.822 305.649 846.454 307.58 849.668 310.599L858.163 298.964C853.396 294.563 844.914 291.459 837.569 291.349C819.651 291.349 805.791 305.185 805.791 321.684C805.791 338.087 819.614 351.776 837.96 351.776C854.362 351.776 867.611 340.422 867.611 322.943C867.611 321.11 867.427 319.252 867.146 317.321Z"
    fill="#BC96E6" fill-opacity="0.239216" />
  <path
    d="M280.141 474.001C291.704 474.001 301.946 467.181 301.946 456.193C301.946 447.662 295.97 442.125 286.949 438.324C280.716 435.709 276.634 434.841 276.634 432.189C276.634 430.221 278.895 428.607 282.036 428.607C284.798 428.607 289.235 429.928 290.958 432.983L299.795 424.452C297.533 418.756 290.665 414.601 281.865 414.601C275.453 414.601 269.545 417.039 265.742 421.062L265.792 442.507C268.239 445.015 271.493 446.901 274.984 448.408C280.643 450.925 286.546 453.541 286.546 456.523C286.546 458.882 283.368 460.068 280.105 460.068C275.277 460.068 270.792 457.917 268.396 454.372L265.826 456.888L265.857 470.421C269.779 472.69 274.823 474.001 280.141 474.001ZM398.959 438.3L399.101 415.481H398.959V438.3ZM806.956 436.258L823.663 436.315C826.533 431.552 831.815 428.388 837.569 428.388C841.822 428.388 846.454 430.319 849.668 433.338L858.163 421.702C853.396 417.302 844.914 414.198 837.569 414.088C822.711 414.088 810.644 423.601 806.956 436.258Z"
    fill="#BC96E6" fill-opacity="0.239216" />
  <path
    d="M280.141 596.74C291.704 596.74 301.946 589.92 301.946 578.932C301.946 570.401 295.97 564.864 286.949 561.063C280.716 558.448 276.634 557.579 276.634 554.927C276.634 552.96 278.895 551.346 282.036 551.346C284.798 551.346 289.235 552.666 290.958 555.722L299.795 547.191C297.533 541.496 290.665 537.34 281.865 537.34C275.611 537.34 269.834 539.66 266.026 543.507L266.077 565.532C268.489 567.898 271.626 569.698 274.984 571.147C280.643 573.664 286.546 576.28 286.546 579.262C286.546 581.621 283.368 582.806 280.105 582.806C275.277 582.806 270.792 580.655 268.396 577.11L266.109 579.349L266.141 593.322C270.021 595.491 274.951 596.74 280.141 596.74ZM445.248 595.933V538.22H431.446V559.853H414.285V538.22H398.959V595.933H414.285V574.153H431.446V595.933H445.248ZM701.114 538.22L687.755 569.497L674.433 538.22H657.848L684.345 596.593H691.299L717.907 538.22H701.114ZM867.146 562.799H837.544V574.214H850.744C850.536 579.69 845.549 583.026 838.57 583.026C827.889 583.026 821.411 575.216 821.411 567.125C821.411 558.203 828.964 551.126 837.569 551.126C841.822 551.126 846.454 553.058 849.668 556.077L858.163 544.441C853.396 540.041 844.914 536.936 837.569 536.826C819.651 536.826 805.791 550.662 805.791 567.162C805.791 583.564 819.614 597.253 837.96 597.253C854.362 597.253 867.611 585.899 867.611 568.421C867.611 566.587 867.427 564.73 867.146 562.799Z"
    fill="#BC96E6" fill-opacity="0.239216" />
  <path
    d="M280.141 719.478C291.704 719.478 301.946 712.658 301.946 701.67C301.946 700.301 301.791 699.008 301.495 697.788L282.813 697.724C285.036 699.079 286.546 700.493 286.546 702.001C286.546 704.359 283.368 705.545 280.105 705.545C278.455 705.545 276.845 705.293 275.345 704.821L275.476 719.137C276.992 719.361 278.554 719.478 280.141 719.478ZM410.787 718.671L410.55 698.163L398.959 698.123V718.671H410.787ZM867.146 685.537H837.544V696.952H850.744C850.536 702.429 845.549 705.765 838.57 705.765C827.889 705.765 821.411 697.955 821.411 689.864C821.411 680.942 828.964 673.865 837.569 673.865C841.822 673.865 846.454 675.796 849.668 678.815L858.163 667.179C853.396 662.779 844.914 659.675 837.569 659.565C819.651 659.565 805.791 673.4 805.791 689.901C805.791 706.303 819.614 719.992 837.96 719.992C854.362 719.992 867.611 708.637 867.611 691.16C867.611 689.326 867.427 687.468 867.146 685.537Z"
    fill="#BC96E6" fill-opacity="0.239216" />
  <path
    d="M280.141 842.216C291.704 842.216 301.946 835.397 301.946 824.409C301.946 815.878 295.97 810.341 286.949 806.54C280.716 803.924 276.634 803.057 276.634 800.404C276.634 798.437 278.895 796.823 282.036 796.823C284.798 796.823 289.235 798.143 290.958 801.199L299.795 792.668C297.534 786.972 290.665 782.817 281.865 782.817C279.867 782.817 277.918 783.055 276.066 783.502L276.375 817.243C281.57 819.572 286.546 822.001 286.546 824.739C286.546 827.098 283.368 828.283 280.105 828.283C278.861 828.283 277.641 828.139 276.472 827.867L276.602 842.021C277.761 842.149 278.944 842.216 280.141 842.216ZM562.081 793.047L546.755 787.524V841.41H562.081V793.047ZM431.446 783.697V805.33H414.285V783.697H398.959V841.41H414.285V819.63H431.446V841.41H446.699V783.697H431.446ZM701.114 783.697L687.755 814.973L674.433 783.697H657.848L684.345 842.07H691.299L717.907 783.697H701.114ZM867.146 808.275H837.544V819.691H850.744C850.536 825.167 845.549 828.503 838.57 828.503C827.889 828.503 821.411 820.693 821.411 812.602C821.411 803.68 828.964 796.603 837.569 796.603C841.822 796.603 846.454 798.534 849.668 801.553L858.163 789.917C853.396 785.517 844.914 782.413 837.569 782.303C819.651 782.303 805.791 796.139 805.791 812.639C805.791 829.041 819.614 842.73 837.96 842.73C854.362 842.73 867.611 831.376 867.611 813.898C867.611 812.064 867.427 810.207 867.146 808.275Z"
    fill="#BC96E6" fill-opacity="0.239216" />
  <path
    d="M546.755 935.098L562.081 940.263V906.435H546.755V935.098ZM662.809 917.365L677.028 912.526L674.433 906.435H657.848L662.809 917.365Z"
    fill="#BC96E6" fill-opacity="0.239216" />
  <path
    d="M869.659 290.12L567.404 188.251L265.442 290.997L266.214 624.812L445.248 624.549V509.666H398.516L399.221 396.199L567.369 335.063L735.264 395.571L735.729 436.013L871 436.478L869.659 290.12ZM276.621 844.055L578.875 945.924L880.838 843.178L880.066 509.364L588.467 509.601V624.483L747.764 624.509L747.059 737.977L578.91 799.112L411.016 738.605L410.55 698.163L275.28 697.698L276.621 844.055Z"
    stroke="#BC96E6" stroke-width="0.755906" stroke-miterlimit="22.9256" />
  <path d="M249.129 404.011V280.861L502.368 195.153" stroke="#BC96E6" stroke-width="5.33329" stroke-miterlimit="22.9256"
    stroke-linecap="square" />
  <path d="M897.622 731.792V854.942L644.383 940.65" stroke="#BC96E6" stroke-width="5.33329" stroke-miterlimit="22.9256"
    stroke-linecap="square" />
  <path d="M424.859 698.013V729.767L490.157 751.867" stroke="#BC96E6" stroke-width="5.33329" stroke-miterlimit="22.9256"
    stroke-linecap="square" />
  <path d="M715.763 438.666V406.911L650.465 384.811" stroke="#BC96E6" stroke-width="5.33329" stroke-miterlimit="22.9256"
    stroke-linecap="square" />
  <defs>
    <linearGradient id="paint0_linear_112_2" x1="587.955" y1="962.803" x2="582.155" y2="93.3634"
      gradientUnits="userSpaceOnUse">
      <stop stop-color="#210B2C" />
      <stop offset="0.6" stop-color="#6E5089" />
      <stop offset="1" stop-color="#BC96E6" />
    </linearGradient>
  </defs>
</svg>